<svg xmlns="http://www.w3.org/2000/svg" xmlns:xlink="http://www.w3.org/1999/xlink" width="500" zoomAndPan="magnify" viewBox="0 0 375 374.999991" height="500" preserveAspectRatio="xMidYMid meet" version="1.0"><defs><g/><clipPath id="521195ee8f"><path d="M 204.128906 124.445312 L 229.300781 124.445312 L 229.300781 164.722656 L 204.128906 164.722656 Z M 204.128906 124.445312 " clip-rule="nonzero"/></clipPath></defs><rect x="-37.5" width="450" fill="#ffffff" y="-37.499999" height="449.999989" fill-opacity="1"/><rect x="-37.5" width="450" fill="#000000" y="-37.499999" height="449.999989" fill-opacity="1"/><g clip-path="url(#521195ee8f)"><path fill="#ffffff" d="M 210.792969 164.667969 C 211.1875 164.878906 211.601562 164.425781 211.359375 164.050781 C 210.054688 162.015625 208.816406 158.589844 210.789062 154.183594 C 214.078125 146.828125 216.078125 143.019531 216.078125 143.019531 C 216.078125 143.019531 217.144531 147.464844 220.027344 151.417969 C 222.804688 155.21875 224.328125 160.003906 221.875 163.988281 C 221.644531 164.363281 222.050781 164.804688 222.441406 164.601562 C 225.476562 163.050781 228.878906 159.9375 229.261719 153.742188 C 229.40625 151.851562 229.191406 149.199219 228.128906 145.855469 C 226.765625 141.617188 225.085938 139.640625 224.117188 138.789062 C 223.824219 138.535156 223.375 138.761719 223.398438 139.148438 C 223.679688 143.71875 221.960938 144.882812 220.980469 142.265625 C 220.589844 141.21875 220.363281 139.414062 220.363281 137.214844 C 220.363281 133.550781 219.300781 129.777344 216.957031 126.714844 C 216.347656 125.917969 215.632812 125.171875 214.816406 124.539062 C 214.519531 124.308594 214.089844 124.539062 214.117188 124.914062 C 214.296875 127.398438 214.132812 134.515625 207.890625 143.015625 C 202.230469 150.902344 204.421875 156.960938 205.203125 158.601562 C 206.691406 161.746094 208.765625 163.589844 210.792969 164.667969 Z M 210.792969 164.667969 " fill-opacity="1" fill-rule="nonzero"/></g><g fill="#ffffff" fill-opacity="1"><g transform="translate(40.486847, 218.102387)"><g><path d="M 26.609375 0 L 15.921875 0 L 0.796875 -44.765625 L 10.203125 -44.765625 L 21.0625 -11.390625 L 21.828125 -11.390625 L 32.546875 -44.765625 L 41.703125 -44.765625 Z M 26.609375 0 "/></g></g></g><g fill="#ffffff" fill-opacity="1"><g transform="translate(93.069306, 218.102387)"><g><path d="M 42.953125 0 L 33.640625 0 L 30.28125 -10.3125 L 13.140625 -10.3125 L 9.765625 0 L 0.671875 0 L 16.140625 -44.765625 L 27.5 -44.765625 Z M 21.28125 -35.421875 L 15.515625 -17.75 L 27.828125 -17.75 L 22.046875 -35.421875 Z M 21.28125 -35.421875 "/></g></g></g><g fill="#ffffff" fill-opacity="1"><g transform="translate(146.784336, 218.102387)"><g><path d="M 14.390625 0 L 5.8125 0 L 5.8125 -44.765625 L 15.953125 -44.765625 L 33.921875 -15.921875 L 34.71875 -16.046875 L 34.71875 -44.765625 L 43.234375 -44.765625 L 43.234375 0 L 34.171875 0 L 15.15625 -30.796875 L 14.390625 -30.671875 Z M 14.390625 0 "/></g></g></g><g fill="#ffffff" fill-opacity="1"><g transform="translate(205.947949, 218.102387)"><g><path d="M 14.671875 0 L 5.8125 0 L 5.8125 -44.765625 L 14.671875 -44.765625 Z M 14.671875 0 "/></g></g></g><g fill="#ffffff" fill-opacity="1"><g transform="translate(236.552402, 218.102387)"><g><path d="M 19.84375 0.640625 C 16.738281 0.640625 13.976562 0.257812 11.5625 -0.5 C 9.144531 -1.269531 7.128906 -2.273438 5.515625 -3.515625 C 3.898438 -4.765625 2.664062 -6.132812 1.8125 -7.625 L 6.671875 -13.5625 L 7.4375 -13.5625 C 8.78125 -11.5625 10.488281 -9.96875 12.5625 -8.78125 C 14.632812 -7.601562 17.0625 -7.015625 19.84375 -7.015625 C 22.207031 -7.015625 23.988281 -7.515625 25.1875 -8.515625 C 26.394531 -9.515625 27 -10.890625 27 -12.640625 C 27 -13.703125 26.804688 -14.585938 26.421875 -15.296875 C 26.035156 -16.015625 25.390625 -16.628906 24.484375 -17.140625 C 23.585938 -17.648438 22.375 -18.09375 20.84375 -18.46875 L 15.09375 -19.78125 C 11.070312 -20.695312 8.078125 -22.222656 6.109375 -24.359375 C 4.140625 -26.492188 3.15625 -29.265625 3.15625 -32.671875 C 3.15625 -35.203125 3.785156 -37.425781 5.046875 -39.34375 C 6.316406 -41.257812 8.160156 -42.75 10.578125 -43.8125 C 12.992188 -44.875 15.890625 -45.40625 19.265625 -45.40625 C 22.710938 -45.40625 25.664062 -44.953125 28.125 -44.046875 C 30.582031 -43.140625 32.660156 -41.742188 34.359375 -39.859375 L 29.96875 -33.859375 L 29.203125 -33.859375 C 27.941406 -35.191406 26.492188 -36.1875 24.859375 -36.84375 C 23.222656 -37.507812 21.359375 -37.84375 19.265625 -37.84375 C 16.828125 -37.84375 14.972656 -37.410156 13.703125 -36.546875 C 12.441406 -35.691406 11.8125 -34.507812 11.8125 -33 C 11.8125 -31.59375 12.253906 -30.46875 13.140625 -29.625 C 14.035156 -28.789062 15.570312 -28.140625 17.75 -27.671875 L 23.640625 -26.453125 C 27.984375 -25.535156 31.132812 -23.976562 33.09375 -21.78125 C 35.050781 -19.59375 36.03125 -16.734375 36.03125 -13.203125 C 36.03125 -10.398438 35.425781 -7.960938 34.21875 -5.890625 C 33.019531 -3.816406 31.207031 -2.207031 28.78125 -1.0625 C 26.351562 0.0703125 23.375 0.640625 19.84375 0.640625 Z M 19.84375 0.640625 "/></g></g></g><g fill="#ffffff" fill-opacity="1"><g transform="translate(285.094341, 218.102387)"><g><path d="M 34.71875 -27.921875 L 34.71875 -44.765625 L 43.53125 -44.765625 L 43.53125 0 L 34.71875 0 L 34.71875 -20.390625 L 14.671875 -20.390625 L 14.671875 0 L 5.8125 0 L 5.8125 -44.765625 L 14.671875 -44.765625 L 14.671875 -27.921875 Z M 34.71875 -27.921875 "/></g></g></g><g fill="#ffffff" fill-opacity="1"><g transform="translate(143.03106, 246.922443)"><g><path d="M 6.078125 0.15625 C 5.046875 0.15625 4.140625 -0.0507812 3.359375 -0.46875 C 2.585938 -0.894531 1.976562 -1.535156 1.53125 -2.390625 C 1.09375 -3.242188 0.875 -4.300781 0.875 -5.5625 C 0.875 -6.8125 1.09375 -7.863281 1.53125 -8.71875 C 1.976562 -9.570312 2.585938 -10.207031 3.359375 -10.625 C 4.140625 -11.050781 5.046875 -11.265625 6.078125 -11.265625 C 7.140625 -11.265625 8.046875 -11.054688 8.796875 -10.640625 C 9.546875 -10.222656 10.078125 -9.585938 10.390625 -8.734375 L 8.796875 -7.75 L 8.609375 -7.765625 C 8.367188 -8.335938 8.039062 -8.75 7.625 -9 C 7.21875 -9.25 6.703125 -9.375 6.078125 -9.375 C 5.148438 -9.375 4.425781 -9.066406 3.90625 -8.453125 C 3.394531 -7.847656 3.140625 -6.882812 3.140625 -5.5625 C 3.140625 -4.238281 3.394531 -3.269531 3.90625 -2.65625 C 4.425781 -2.039062 5.148438 -1.734375 6.078125 -1.734375 C 7.515625 -1.734375 8.394531 -2.4375 8.71875 -3.84375 L 8.90625 -3.84375 L 10.53125 -3 C 10.226562 -1.945312 9.707031 -1.15625 8.96875 -0.625 C 8.238281 -0.101562 7.273438 0.15625 6.078125 0.15625 Z M 6.078125 0.15625 "/></g></g></g><g fill="#ffffff" fill-opacity="1"><g transform="translate(156.435482, 246.922443)"><g><path d="M 10.65625 0 L 8.34375 0 L 7.515625 -2.5625 L 3.265625 -2.5625 L 2.421875 0 L 0.171875 0 L 4 -11.109375 L 6.828125 -11.109375 Z M 5.28125 -8.796875 L 3.859375 -4.40625 L 6.90625 -4.40625 L 5.46875 -8.796875 Z M 5.28125 -8.796875 "/></g></g></g><g fill="#ffffff" fill-opacity="1"><g transform="translate(169.771504, 246.922443)"><g><path d="M 3.578125 0 L 1.4375 0 L 1.4375 -11.109375 L 3.953125 -11.109375 L 8.421875 -3.953125 L 8.609375 -3.984375 L 8.609375 -11.109375 L 10.734375 -11.109375 L 10.734375 0 L 8.484375 0 L 3.765625 -7.640625 L 3.578125 -7.609375 Z M 3.578125 0 "/></g></g></g><g fill="#ffffff" fill-opacity="1"><g transform="translate(184.460337, 246.922443)"><g><path d="M 5.4375 -11.109375 C 7.238281 -11.109375 8.613281 -10.640625 9.5625 -9.703125 C 10.519531 -8.773438 11 -7.394531 11 -5.5625 C 11 -3.71875 10.519531 -2.328125 9.5625 -1.390625 C 8.613281 -0.460938 7.238281 0 5.4375 0 L 1.4375 0 L 1.4375 -11.109375 Z M 5.3125 -1.84375 C 6.457031 -1.84375 7.3125 -2.132812 7.875 -2.71875 C 8.445312 -3.3125 8.734375 -4.257812 8.734375 -5.5625 C 8.734375 -6.851562 8.445312 -7.789062 7.875 -8.375 C 7.3125 -8.96875 6.457031 -9.265625 5.3125 -9.265625 L 3.640625 -9.265625 L 3.640625 -1.84375 Z M 5.3125 -1.84375 "/></g></g></g><g fill="#ffffff" fill-opacity="1"><g transform="translate(198.845165, 246.922443)"><g><path d="M 3.640625 -11.109375 L 3.640625 -1.84375 L 8.625 -1.84375 L 8.625 0 L 1.4375 0 L 1.4375 -11.109375 Z M 3.640625 -11.109375 "/></g></g></g><g fill="#ffffff" fill-opacity="1"><g transform="translate(210.349573, 246.922443)"><g><path d="M 3.640625 -4.875 L 3.640625 -1.84375 L 8.9375 -1.84375 L 8.9375 0 L 1.4375 0 L 1.4375 -11.109375 L 8.828125 -11.109375 L 8.828125 -9.265625 L 3.640625 -9.265625 L 3.640625 -6.671875 L 8.171875 -6.671875 L 8.171875 -4.875 Z M 3.640625 -4.875 "/></g></g></g><g fill="#ffffff" fill-opacity="1"><g transform="translate(222.408786, 246.922443)"><g><path d="M 4.921875 0.15625 C 4.148438 0.15625 3.460938 0.0625 2.859375 -0.125 C 2.265625 -0.3125 1.765625 -0.5625 1.359375 -0.875 C 0.960938 -1.1875 0.660156 -1.523438 0.453125 -1.890625 L 1.65625 -3.359375 L 1.84375 -3.359375 C 2.175781 -2.867188 2.597656 -2.472656 3.109375 -2.171875 C 3.628906 -1.878906 4.234375 -1.734375 4.921875 -1.734375 C 5.515625 -1.734375 5.957031 -1.859375 6.25 -2.109375 C 6.550781 -2.359375 6.703125 -2.703125 6.703125 -3.140625 C 6.703125 -3.398438 6.648438 -3.617188 6.546875 -3.796875 C 6.453125 -3.972656 6.296875 -4.125 6.078125 -4.25 C 5.859375 -4.382812 5.554688 -4.492188 5.171875 -4.578125 L 3.75 -4.90625 C 2.75 -5.132812 2.003906 -5.515625 1.515625 -6.046875 C 1.023438 -6.578125 0.78125 -7.265625 0.78125 -8.109375 C 0.78125 -8.734375 0.9375 -9.285156 1.25 -9.765625 C 1.5625 -10.242188 2.019531 -10.613281 2.625 -10.875 C 3.226562 -11.132812 3.945312 -11.265625 4.78125 -11.265625 C 5.632812 -11.265625 6.363281 -11.148438 6.96875 -10.921875 C 7.582031 -10.703125 8.101562 -10.359375 8.53125 -9.890625 L 7.4375 -8.40625 L 7.25 -8.40625 C 6.9375 -8.726562 6.578125 -8.972656 6.171875 -9.140625 C 5.765625 -9.304688 5.300781 -9.390625 4.78125 -9.390625 C 4.175781 -9.390625 3.71875 -9.28125 3.40625 -9.0625 C 3.09375 -8.851562 2.9375 -8.5625 2.9375 -8.1875 C 2.9375 -7.84375 3.046875 -7.566406 3.265625 -7.359375 C 3.484375 -7.148438 3.863281 -6.988281 4.40625 -6.875 L 5.859375 -6.5625 C 6.941406 -6.332031 7.722656 -5.945312 8.203125 -5.40625 C 8.691406 -4.863281 8.9375 -4.15625 8.9375 -3.28125 C 8.9375 -2.582031 8.785156 -1.972656 8.484375 -1.453125 C 8.191406 -0.941406 7.742188 -0.546875 7.140625 -0.265625 C 6.535156 0.015625 5.796875 0.15625 4.921875 0.15625 Z M 4.921875 0.15625 "/></g></g></g><path stroke-linecap="butt" transform="matrix(0.75, 0.000000000000000637, -0.000000000000000637, 0.75, 83.636322, 240.234155)" fill="none" stroke-linejoin="miter" d="M 0.000528723 2.000294 L 66.932825 2.000294 " stroke="#ffffff" stroke-width="4" stroke-opacity="1" stroke-miterlimit="4"/><path stroke-linecap="butt" transform="matrix(0.75, 0.000000000000000637, -0.000000000000000637, 0.75, 241.471909, 240.234155)" fill="none" stroke-linejoin="miter" d="M 0.000996809 2.000294 L 66.933293 2.000294 " stroke="#ffffff" stroke-width="4" stroke-opacity="1" stroke-miterlimit="4"/></svg>